mtllib hazard_mine.mtl
o HazardMine
# central octa-like hull
v 0.00 0.58 0.00
v 0.00 -0.58 0.00
v 0.58 0.00 0.00
v -0.58 0.00 0.00
v 0.00 0.00 0.58
v 0.00 0.00 -0.58
usemtl Hull
f 1 3 5
f 1 5 4
f 1 4 6
f 1 6 3
f 2 5 3
f 2 4 5
f 2 6 4
f 2 3 6
# armor ring plates
v -0.44 0.18 0.50
v 0.44 0.18 0.50
v 0.44 -0.18 0.50
v -0.44 -0.18 0.50
v -0.34 0.14 0.66
v 0.34 0.14 0.66
v 0.34 -0.14 0.66
v -0.34 -0.14 0.66
usemtl Armor
f 7 8 12 11
f 8 9 13 12
f 9 10 14 13
f 10 7 11 14
f 11 12 13 14
# red front core
v -0.18 0.18 0.675
v 0.18 0.18 0.675
v 0.18 -0.18 0.675
v -0.18 -0.18 0.675
usemtl Core
f 15 16 17 18
# six short spikes
usemtl Armor
v 0.00 0.95 0.00
f 1 5 19
f 1 19 6
v 0.00 -0.95 0.00
f 2 20 5
f 2 6 20
v 0.95 0.00 0.00
f 3 21 5
f 3 6 21
v -0.95 0.00 0.00
f 4 5 22
f 4 22 6
v 0.00 0.00 0.95
f 1 23 3
f 3 23 2
f 2 23 4
f 4 23 1
v 0.00 0.00 -0.95
f 1 3 24
f 3 2 24
f 2 4 24
f 4 1 24
