mtllib hazard_drone.mtl
o HazardDrone

# central tapered body
v -0.36 -0.22 0.42
v 0.36 -0.22 0.42
v 0.36 0.22 0.42
v -0.36 0.22 0.42
v -0.28 -0.18 -0.42
v 0.28 -0.18 -0.42
v 0.28 0.18 -0.42
v -0.28 0.18 -0.42

# left wing wedge
v -0.34 -0.10 0.24
v -0.96 -0.08 0.10
v -1.12 -0.06 -0.20
v -0.40 -0.08 -0.26
v -0.34 0.10 0.24
v -0.96 0.08 0.10
v -1.12 0.06 -0.20
v -0.40 0.08 -0.26

# right wing wedge
v 0.34 -0.10 0.24
v 0.96 -0.08 0.10
v 1.12 -0.06 -0.20
v 0.40 -0.08 -0.26
v 0.34 0.10 0.24
v 0.96 0.08 0.10
v 1.12 0.06 -0.20
v 0.40 0.08 -0.26

# top armor / canopy
v -0.22 0.20 0.20
v 0.22 0.20 0.20
v 0.16 0.34 -0.08
v -0.16 0.34 -0.08
v -0.16 0.18 -0.28
v 0.16 0.18 -0.28

# front hazard plate
v -0.16 -0.09 0.435
v 0.16 -0.09 0.435
v 0.16 0.09 0.435
v -0.16 0.09 0.435

# wing tip hazard plates
v -1.10 -0.065 -0.10
v -0.94 -0.075 -0.02
v -0.94 0.075 -0.02
v -1.10 0.065 -0.10
v 0.94 -0.075 -0.02
v 1.10 -0.065 -0.10
v 1.10 0.065 -0.10
v 0.94 0.075 -0.02

usemtl Body
f 1 2 3 4
f 5 8 7 6
f 1 5 6 2
f 2 6 7 3
f 3 7 8 4
f 4 8 5 1

usemtl Armor
f 9 10 11 12
f 13 16 15 14
f 9 13 14 10
f 10 14 15 11
f 11 15 16 12
f 12 16 13 9
f 17 20 19 18
f 21 22 23 24
f 17 18 22 21
f 18 19 23 22
f 19 20 24 23
f 20 17 21 24
f 25 26 27 28
f 28 27 30 29
f 25 28 29 5
f 26 6 30 27
f 25 1 2 26
f 29 30 6 5

usemtl Sensor
f 31 32 33 34

usemtl Hazard
f 35 36 37 38
f 39 40 41 42
