mtllib ship.mtl
o VortexFighter
v -0.45000 -0.16000 -1.80000
v 0.00000 -0.16000 -2.55000
v 0.45000 -0.16000 -1.80000
v 0.58000 -0.16000 0.65000
v 0.28000 -0.16000 1.35000
v -0.28000 -0.16000 1.35000
v -0.58000 -0.16000 0.65000
v -0.45000 0.18000 -1.80000
v 0.00000 0.18000 -2.55000
v 0.45000 0.18000 -1.80000
v 0.58000 0.18000 0.65000
v 0.28000 0.18000 1.35000
v -0.28000 0.18000 1.35000
v -0.58000 0.18000 0.65000
v -0.28000 0.18000 -1.10000
v 0.00000 0.18000 -1.55000
v 0.28000 0.18000 -1.10000
v 0.34000 0.18000 -0.15000
v 0.00000 0.18000 0.22000
v -0.34000 0.18000 -0.15000
v -0.28000 0.42000 -1.10000
v 0.00000 0.42000 -1.55000
v 0.28000 0.42000 -1.10000
v 0.34000 0.42000 -0.15000
v 0.00000 0.42000 0.22000
v -0.34000 0.42000 -0.15000
v -0.35000 -0.12000 -0.80000
v -0.70000 -0.12000 -0.90000
v -2.50000 -0.12000 0.15000
v -2.75000 -0.12000 0.85000
v -1.60000 -0.12000 0.72000
v -0.55000 -0.12000 0.25000
v -0.35000 0.04000 -0.80000
v -0.70000 0.04000 -0.90000
v -2.50000 0.04000 0.15000
v -2.75000 0.04000 0.85000
v -1.60000 0.04000 0.72000
v -0.55000 0.04000 0.25000
v 0.35000 -0.12000 -0.80000
v 0.70000 -0.12000 -0.90000
v 2.50000 -0.12000 0.15000
v 2.75000 -0.12000 0.85000
v 1.60000 -0.12000 0.72000
v 0.55000 -0.12000 0.25000
v 0.35000 0.04000 -0.80000
v 0.70000 0.04000 -0.90000
v 2.50000 0.04000 0.15000
v 2.75000 0.04000 0.85000
v 1.60000 0.04000 0.72000
v 0.55000 0.04000 0.25000
v -2.10000 -0.10000 0.10000
v -2.80000 -0.10000 0.55000
v -2.95000 -0.10000 1.00000
v -2.35000 -0.10000 0.86000
v -2.10000 0.02000 0.10000
v -2.80000 0.02000 0.55000
v -2.95000 0.02000 1.00000
v -2.35000 0.02000 0.86000
v 2.10000 -0.10000 0.10000
v 2.80000 -0.10000 0.55000
v 2.95000 -0.10000 1.00000
v 2.35000 -0.10000 0.86000
v 2.10000 0.02000 0.10000
v 2.80000 0.02000 0.55000
v 2.95000 0.02000 1.00000
v 2.35000 0.02000 0.86000
v -0.60000 -0.14000 0.72000
v -0.24000 -0.14000 0.72000
v -0.24000 -0.14000 1.45000
v -0.60000 -0.14000 1.45000
v -0.60000 0.12000 0.72000
v -0.24000 0.12000 0.72000
v -0.24000 0.12000 1.45000
v -0.60000 0.12000 1.45000
v 0.24000 -0.14000 0.72000
v 0.60000 -0.14000 0.72000
v 0.60000 -0.14000 1.45000
v 0.24000 -0.14000 1.45000
v 0.24000 0.12000 0.72000
v 0.60000 0.12000 0.72000
v 0.60000 0.12000 1.45000
v 0.24000 0.12000 1.45000
v -1.15000 0.05000 0.10000
v -1.95000 0.05000 0.55000
v -1.83000 0.05000 0.72000
v -1.00000 0.05000 0.30000
v -1.15000 0.08000 0.10000
v -1.95000 0.08000 0.55000
v -1.83000 0.08000 0.72000
v -1.00000 0.08000 0.30000
v 1.15000 0.05000 0.10000
v 1.95000 0.05000 0.55000
v 1.83000 0.05000 0.72000
v 1.00000 0.05000 0.30000
v 1.15000 0.08000 0.10000
v 1.95000 0.08000 0.55000
v 1.83000 0.08000 0.72000
v 1.00000 0.08000 0.30000
g fuselage
usemtl Hull
f 1 2 3 4 5 6 7
f 14 13 12 11 10 9 8
f 1 2 9 8
f 2 3 10 9
f 3 4 11 10
f 4 5 12 11
f 5 6 13 12
f 6 7 14 13
f 7 1 8 14
g canopy
usemtl Glass
f 15 16 17 18 19 20
f 26 25 24 23 22 21
f 15 16 22 21
f 16 17 23 22
f 17 18 24 23
f 18 19 25 24
f 19 20 26 25
f 20 15 21 26
g wingL
usemtl Red
f 27 28 29 30 31 32
f 38 37 36 35 34 33
f 27 28 34 33
f 28 29 35 34
f 29 30 36 35
f 30 31 37 36
f 31 32 38 37
f 32 27 33 38
g wingR
usemtl Red
f 39 40 41 42 43 44
f 50 49 48 47 46 45
f 39 40 46 45
f 40 41 47 46
f 41 42 48 47
f 42 43 49 48
f 43 44 50 49
f 44 39 45 50
g tipL
usemtl White
f 51 52 53 54
f 58 57 56 55
f 51 52 56 55
f 52 53 57 56
f 53 54 58 57
f 54 51 55 58
g tipR
usemtl White
f 59 60 61 62
f 66 65 64 63
f 59 60 64 63
f 60 61 65 64
f 61 62 66 65
f 62 59 63 66
g engine-0.42
usemtl Hull
f 67 68 69 70
f 74 73 72 71
f 67 68 72 71
f 68 69 73 72
f 69 70 74 73
f 70 67 71 74
g engine0.42
usemtl Hull
f 75 76 77 78
f 82 81 80 79
f 75 76 80 79
f 76 77 81 80
f 77 78 82 81
f 78 75 79 82
g stripL
usemtl Cyan
f 83 84 85 86
f 90 89 88 87
f 83 84 88 87
f 84 85 89 88
f 85 86 90 89
f 86 83 87 90
g stripR
usemtl Cyan
f 91 92 93 94
f 98 97 96 95
f 91 92 96 95
f 92 93 97 96
f 93 94 98 97
f 94 91 95 98